<svg xmlns="http://www.w3.org/2000/svg" width="60" height="61" viewBox="0 0 60 61" fill="none">
    <path
        d="M7.5 14.985C7.5 14.4877 7.69754 14.0108 8.04917 13.6592C8.40081 13.3075 8.87772 13.11 9.375 13.11C16.0325 13.11 22.52 10.7525 28.875 5.98499C29.1996 5.74157 29.5943 5.60999 30 5.60999C30.4057 5.60999 30.8004 5.74157 31.125 5.98499C37.48 10.7525 43.9675 13.11 50.625 13.11C51.1223 13.11 51.5992 13.3075 51.9508 13.6592C52.3025 14.0108 52.5 14.4877 52.5 14.985V28.11C52.5 28.5625 52.49 29.01 52.47 29.4575C51.4374 28.4118 50.1581 27.6432 48.75 27.2225V16.805C42.3075 16.425 36.05 14.08 30 9.80499C23.95 14.08 17.6925 16.425 11.25 16.805V28.11C11.25 38.75 17.3825 46.5575 30 51.715C30.8427 51.3709 31.6763 51.0049 32.5 50.6175V54.36C32.5 54.485 32.5025 54.605 32.51 54.725C31.915 54.985 31.31 55.235 30.685 55.48C30.2439 55.6535 29.7536 55.6535 29.3125 55.48C14.895 49.8 7.5 40.61 7.5 28.11V14.985ZM40 38.11V35.61C40 33.9524 40.6585 32.3627 41.8306 31.1906C43.0027 30.0185 44.5924 29.36 46.25 29.36C47.9076 29.36 49.4973 30.0185 50.6694 31.1906C51.8415 32.3627 52.5 33.9524 52.5 35.61V38.11H53.75C54.7446 38.11 55.6984 38.5051 56.4016 39.2083C57.1049 39.9116 57.5 40.8654 57.5 41.86V54.36C57.5 55.3545 57.1049 56.3084 56.4016 57.0116C55.6984 57.7149 54.7446 58.11 53.75 58.11H38.75C37.7554 58.11 36.8016 57.7149 36.0983 57.0116C35.3951 56.3084 35 55.3545 35 54.36V41.86C35 40.8654 35.3951 39.9116 36.0983 39.2083C36.8016 38.5051 37.7554 38.11 38.75 38.11H40ZM43.75 35.61V38.11H48.75V35.61C48.75 34.9469 48.4866 34.3111 48.0178 33.8422C47.5489 33.3734 46.913 33.11 46.25 33.11C45.587 33.11 44.9511 33.3734 44.4822 33.8422C44.0134 34.3111 43.75 34.9469 43.75 35.61ZM48.75 48.11C48.75 47.4469 48.4866 46.8111 48.0178 46.3422C47.5489 45.8734 46.913 45.61 46.25 45.61C45.587 45.61 44.9511 45.8734 44.4822 46.3422C44.0134 46.8111 43.75 47.4469 43.75 48.11C43.75 48.773 44.0134 49.4089 44.4822 49.8778C44.9511 50.3466 45.587 50.61 46.25 50.61C46.913 50.61 47.5489 50.3466 48.0178 49.8778C48.4866 49.4089 48.75 48.773 48.75 48.11Z"
        fill="#4F9CF9" />
</svg>