<svg xmlns="http://www.w3.org/2000/svg" width="60" height="61" viewBox="0 0 60 61" fill="none">
    <path
        d="M9.375 11.86C6.29063 11.86 3.75 14.4006 3.75 17.485V43.735C3.75 46.8194 6.29063 49.36 9.375 49.36H50.625C53.7094 49.36 56.25 46.8194 56.25 43.735V17.485C56.25 14.4006 53.7094 11.86 50.625 11.86H9.375ZM9.375 15.61H50.625C51.6862 15.61 52.5 16.4237 52.5 17.485V43.735C52.5 44.7962 51.6862 45.61 50.625 45.61H9.375C8.31375 45.61 7.5 44.7962 7.5 43.735V17.485C7.5 16.4237 8.31375 15.61 9.375 15.61ZM20.625 19.36C16.5 19.36 13.125 22.735 13.125 26.86C13.125 28.9469 14.0194 30.8294 15.4106 32.1925C14.1344 33.0537 13.0881 34.214 12.3629 35.5722C11.6377 36.9304 11.2556 38.4453 11.25 39.985H15C15 36.8575 17.4975 34.36 20.625 34.36C23.7525 34.36 26.25 36.8575 26.25 39.985H30C29.9944 38.4453 29.6123 36.9304 28.8871 35.5722C28.1619 34.214 27.1156 33.0537 25.8394 32.1925C27.2306 30.8294 28.125 28.9487 28.125 26.86C28.125 22.735 24.75 19.36 20.625 19.36ZM33.75 21.235V24.985H48.75V21.235H33.75ZM20.625 23.11C22.7194 23.11 24.375 24.7656 24.375 26.86C24.375 28.9544 22.7194 30.61 20.625 30.61C18.5306 30.61 16.875 28.9544 16.875 26.86C16.875 24.7656 18.5306 23.11 20.625 23.11ZM33.75 28.735V32.485H48.75V28.735H33.75ZM33.75 36.235V39.985H43.125V36.235H33.75Z"
        fill="#008AFF" />
</svg>