<svg xmlns="http://www.w3.org/2000/svg" width="60" height="61" viewBox="0 0 60 61" fill="none">
    <path
        d="M15 8.13C13.75 8.13 12.75 8.63 12 9.63L8.75 13.63C8 14.63 7.5 15.63 7.5 16.88V48.13C7.5 50.88 9.75 53.13 12.5 53.13H33.25C32.75 51.63 32.5 49.88 32.5 48.13C32.5 39.88 39.25 33.13 47.5 33.13C49.25 33.13 51 33.38 52.5 33.88V16.88C52.5 15.63 52 14.63 51.25 13.63L47.75 9.38C47.25 8.63 46.25 8.13 45 8.13H15ZM14.75 10.63H44.75L47 13.13H12.75L14.75 10.63ZM15 38.13H30V45.63H15V38.13ZM53.25 40.13L44.25 49.13L40.25 45.13L37.5 48.13L44.5 55.63L56.5 43.63L53.25 40.13Z"
        fill="#4F9CF9" />
</svg>