<svg xmlns="http://www.w3.org/2000/svg" width="60" height="61" viewBox="0 0 60 61" fill="none">
    <path
        d="M20 15.63H7.5C6.11929 15.63 5 16.7493 5 18.13V43.13C5 44.5107 6.11929 45.63 7.5 45.63H20C21.3807 45.63 22.5 44.5107 22.5 43.13V18.13C22.5 16.7493 21.3807 15.63 20 15.63Z"
        stroke="#4F9CF9" stroke-width="5" stroke-linecap="round" stroke-linejoin="round" />
    <path
        d="M32.5 21.43C34.098 24.2329 34.9384 27.4036 34.9384 30.63C34.9384 33.8564 34.098 37.0272 32.5 39.83M41.15 16.155C43.6476 20.5705 44.9603 25.5571 44.9603 30.63C44.9603 35.7029 43.6476 40.6895 41.15 45.105M49.775 10.88C53.219 16.8916 55.0329 23.6985 55.0373 30.6267C55.0417 37.5549 53.2363 44.3641 49.8 50.38"
        stroke="#4F9CF9" stroke-width="5" stroke-linecap="round" stroke-linejoin="round" />
</svg>