<svg xmlns="http://www.w3.org/2000/svg" width="60" height="61" viewBox="0 0 60 61" fill="none">
    <path
        d="M26.25 53.11C26.25 53.11 22.5 53.11 22.5 49.36C22.5 45.61 26.25 34.36 41.25 34.36C56.25 34.36 60 45.61 60 49.36C60 53.11 56.25 53.11 56.25 53.11H26.25ZM41.25 30.61C44.2337 30.61 47.0952 29.4247 49.205 27.3149C51.3147 25.2052 52.5 22.3437 52.5 19.36C52.5 16.3763 51.3147 13.5148 49.205 11.405C47.0952 9.29525 44.2337 8.10999 41.25 8.10999C38.2663 8.10999 35.4048 9.29525 33.295 11.405C31.1853 13.5148 30 16.3763 30 19.36C30 22.3437 31.1853 25.2052 33.295 27.3149C35.4048 29.4247 38.2663 30.61 41.25 30.61ZM19.56 53.11C19.0041 51.9393 18.7268 50.6558 18.75 49.36C18.75 44.2787 21.3 39.0475 26.01 35.41C23.6591 34.6856 21.2098 34.3314 18.75 34.36C3.75 34.36 0 45.61 0 49.36C0 53.11 3.75 53.11 3.75 53.11H19.56ZM16.875 30.61C19.3614 30.61 21.746 29.6223 23.5041 27.8641C25.2623 26.106 26.25 23.7214 26.25 21.235C26.25 18.7486 25.2623 16.364 23.5041 14.6059C21.746 12.8477 19.3614 11.86 16.875 11.86C14.3886 11.86 12.004 12.8477 10.2459 14.6059C8.48772 16.364 7.5 18.7486 7.5 21.235C7.5 23.7214 8.48772 26.106 10.2459 27.8641C12.004 29.6223 14.3886 30.61 16.875 30.61Z"
        fill="#4F9CF9" />
</svg>