<svg xmlns="http://www.w3.org/2000/svg" width="60" height="61" viewBox="0 0 60 61" fill="none">
    <path
        d="M35.15 25.48L30 23.13L35.15 20.78L37.5 15.63L39.85 20.78L45 23.13L39.85 25.48L37.5 30.63L35.15 25.48ZM10 35.63L12.35 30.48L17.5 28.13L12.35 25.78L10 20.63L7.65 25.78L2.5 28.13L7.65 30.48L10 35.63ZM21.25 23.13L23.975 17.105L30 14.38L23.975 11.655L21.25 5.63L18.525 11.655L12.5 14.38L18.525 17.105L21.25 23.13ZM11.25 51.88L26.25 36.855L36.25 46.855L57.5 22.955L53.975 19.43L36.25 39.355L26.25 29.355L7.5 48.13L11.25 51.88Z"
        fill="#4F9CF9" />
</svg>